<svg width="14" height="16" viewBox="0 0 14 16" fill="none" xmlns="http://www.w3.org/2000/svg">
<path fill-rule="evenodd" clip-rule="evenodd" d="M3.82514 1.26667C3.82514 0.567106 4.36302 0 5.02654 0H9.70565C10.3692 0 10.907 0.567106 10.907 1.26667V2.4H13.2466C13.6307 2.4 13.9421 2.72832 13.9421 3.13333C13.9421 3.53834 13.6307 3.86667 13.2466 3.86667H12.7412C12.7821 4.01475 12.804 4.17134 12.804 4.33333V14.3333C12.804 15.2538 12.0962 16 11.2232 16H3.63545C2.76241 16 2.05466 15.2538 2.05466 14.3333V4.33333C2.05466 4.17134 2.07658 4.01475 2.11747 3.86667H1.48558C1.10144 3.86667 0.790039 3.53834 0.790039 3.13333C0.790039 2.72832 1.10144 2.4 1.48558 2.4H3.82514V1.26667ZM5.21623 2.4H9.51596V1.46667H5.21623V2.4ZM3.63545 4.13333C3.53068 4.13333 3.44575 4.22288 3.44575 4.33333V14.3333C3.44575 14.4438 3.53068 14.5333 3.63545 14.5333H11.2232C11.328 14.5333 11.4129 14.4438 11.4129 14.3333V4.33333C11.4129 4.22288 11.328 4.13333 11.2232 4.13333H3.63545ZM5.02654 5.73333C5.41067 5.73333 5.72208 6.06166 5.72208 6.46667V12.468C5.72208 12.873 5.41067 13.2013 5.02654 13.2013C4.6424 13.2013 4.33099 12.873 4.33099 12.468V6.46667C4.33099 6.06166 4.6424 5.73333 5.02654 5.73333ZM7.42932 5.73333C7.81346 5.73333 8.12487 6.06166 8.12487 6.46667V12.468C8.12487 12.873 7.81346 13.2013 7.42932 13.2013C7.04519 13.2013 6.73378 12.873 6.73378 12.468V6.46667C6.73378 6.06166 7.04519 5.73333 7.42932 5.73333ZM9.83211 5.73333C10.2163 5.73333 10.5277 6.06166 10.5277 6.46667V12.468C10.5277 12.873 10.2163 13.2013 9.83211 13.2013C9.44797 13.2013 9.13657 12.873 9.13657 12.468V6.46667C9.13657 6.06166 9.44797 5.73333 9.83211 5.73333Z" fill="#B93857"/>
</svg>
